<?xml version="1.0" encoding="UTF-8" standalone="no"?>
<svg
   width="146.21001pt"
   height="65.489998pt"
   viewBox="0 0 146.21 65.49"
   version="1.1"
   id="svg111"
   sodipodi:docname="logo.svg"
   inkscape:version="1.1 (c4e8f9e, 2021-05-24)"
   xmlns:inkscape="http://www.inkscape.org/namespaces/inkscape"
   xmlns:sodipodi="http://sodipodi.sourceforge.net/DTD/sodipodi-0.dtd"
   xmlns="http://www.w3.org/2000/svg"
   xmlns:svg="http://www.w3.org/2000/svg">
  <sodipodi:namedview
     id="namedview113"
     pagecolor="#ffffff"
     bordercolor="#666666"
     borderopacity="1.0"
     inkscape:pageshadow="2"
     inkscape:pageopacity="0.0"
     inkscape:pagecheckerboard="0"
     inkscape:document-units="pt"
     showgrid="false"
     inkscape:zoom="2.306779"
     inkscape:cx="249.91557"
     inkscape:cy="43.35049"
     inkscape:window-width="1394"
     inkscape:window-height="830"
     inkscape:window-x="46"
     inkscape:window-y="25"
     inkscape:window-maximized="0"
     inkscape:current-layer="svg111"
     width="183.21001pt" />
  <defs
     id="defs14">
    <clipPath
       id="clip1">
      <path
         d="m 175,44 h 8.21094 v 9 H 175 Z m 0,0"
         id="path2" />
    </clipPath>
    <clipPath
       id="clip2">
      <path
         d="m 114,61 h 6 v 8.488281 h -6 z m 0,0"
         id="path5" />
    </clipPath>
    <clipPath
       id="clip3">
      <path
         d="m 120,61 h 7 v 8.488281 h -7 z m 0,0"
         id="path8" />
    </clipPath>
    <clipPath
       id="clip4">
      <path
         d="m 176,61 h 7 v 8.488281 h -7 z m 0,0"
         id="path11" />
    </clipPath>
  </defs>
  <path
     style="fill:#b81e23;fill-opacity:1;fill-rule:evenodd;stroke:none"
     d="m 0.429688,64.609375 c 17.078125,-11 35.191406,-19.179687 54.46875,-25.488281 13.507812,-4.425781 27.316406,-7.585938 41.445312,-9.152344 5.27344,-0.582031 10.57422,-0.808594 15.87109,-1.117187 2.86329,-0.164063 3.21094,-0.257813 3.2461,-3.085938 0.0898,-7.570312 0.0312,-15.058594 0.0312,-22.984375 -2.61719,0 -5.09766,0.03125 -7.94531,0.445313 -0.53516,0.078125 -1.08204,1.03125 -1.52735,1.558593 -0.23828,0.28125 -0.37109,0.652344 -0.54687,0.980469 -0.15235,0.214844 -0.52735,0.027344 -0.48047,-0.140625 0.19531,-1.242187 0.375,-2.484375 0.59765,-3.722656 0.30079,-1.65625 0.3086,-1.585938 1.91797,-1.375 1.3711,0.183594 2.76563,0.257812 4.15235,0.269531 4.88672,0.027344 9.76953,0.027344 14.65625,-0.003906 1.28906,-0.007813 2.57421,-0.179688 3.82031,-0.269531 v 5.550781 c -0.0977,0.015625 -0.44141,0.085937 -0.55078,-0.3125 -0.47657,-1.980469 -0.89453,-2.460938 -2.91406,-2.671875 -2.03907,-0.210938 -4.14454,-0.308594 -6.26954,-0.308594 0,0.511719 -0.0156,15.550781 0.0703,22.832031 0.0312,2.667969 0.47656,2.945313 3.16406,3.03125 6.51953,0.207032 13.03906,0.46875 19.55469,0.742188 0.77343,0.03125 2.3125,0.15625 2.3125,0.554687 0,0.171875 -0.33594,0.183594 -0.50391,0.199219 -12.17969,0.761719 -24.38672,1.265625 -36.54687,2.332031 C 73.09375,35.578125 39.320313,44.445313 7.71875,60.925781 5.59375,62.03125 3.417969,63.234375 1.324219,64.40625 0.929688,64.628906 0.625,64.828125 0.207031,65.003906 c -0.34375,0.160157 -0.253906,-0.08984 0.222657,-0.394531"
     id="path102" />
  <path
     style="fill:#b81e23;fill-opacity:1;fill-rule:nonzero;stroke:none"
     d="m 22.78125,0.898438 c 0,0.140625 0.128906,0.277343 0.320313,0.328125 2.289062,0.566406 2.289062,0.566406 2.359375,3.320312 0.136718,5.386719 0.195312,11.574219 0.296875,16.957031 0.0039,0.265625 -0.02344,0.367188 -0.117188,0.261719 C 18.476563,14.378906 11.613281,7.183594 4.515625,0.0625 4.410156,-0.0429688 4.179688,-0.00390625 4.101563,0.117188 4.019531,0.230469 3.933594,0.574219 3.910156,1.789063 3.757813,8.875 3.507813,24.757813 3.5,25.011719 3.457031,27.742188 3.457031,27.769531 1.273438,28.484375 1.109375,28.535156 1.082031,28.585938 1.054688,28.726563 H 9.292969 C 9.296875,28.589844 9.167969,28.449219 8.972656,28.402344 6.683594,27.835938 6.683594,27.835938 6.613281,25.082031 6.609375,24.808594 6.394531,15.382813 6.273438,10.945313 c -0.019532,-0.785157 0,-1.574219 0,-2.753907 0.65625,0.703125 1.042968,1.140625 1.449218,1.558594 6.15625,6.28125 12.308594,12.566406 18.492188,18.820313 0.882812,0.800781 1.230469,0.882812 1.464844,0.792968 0.289062,-0.07422 0.328125,-0.519531 0.34375,-1.523437 0.113281,-8.0625 0.332031,-15.480469 0.433593,-23.222656 0.05078,-2.734375 0.05078,-2.757813 2.230469,-3.46875 0.167969,-0.058594 0.191406,-0.105469 0.222656,-0.25"
     id="path104" />
  <path
     style="fill:#b81e23;fill-opacity:1;fill-rule:nonzero;stroke:none"
     d="M 58.742188,0.898438 H 48.535156 c 0.113282,0.34375 0.25,0.417968 0.394532,0.4375 2.335937,0.335937 2.378906,0.378906 2.5,2.726562 0.02344,0.378906 0.03125,0.757813 0.03516,1.136719 0.0078,5.554687 0.03125,11.101562 0.0039,16.660156 -0.01563,2.683594 -0.07422,5.378906 -0.238281,8.0625 -0.199219,3.382813 -1.523438,6.179688 -4.59375,7.925781 -0.25,0.136719 -0.433594,0.21875 -0.691406,0.339844 -0.464844,0.21875 0.06641,0.765625 0.761718,0.441406 4.042969,-1.902343 7.664063,-4.375 8.769532,-8.949218 0.667968,-2.769532 0.644531,-5.738282 0.6875,-8.621094 0.08984,-5.421875 -0.02734,-17.105469 -0.02734,-17.105469 0.117187,-2.234375 0.222656,-2.289062 2.519531,-2.617187 0.140625,-0.019532 0.277344,-0.09375 0.390625,-0.4375"
     id="path106" />
  <path
     style="fill:#b81e23;fill-opacity:1;fill-rule:nonzero;stroke:none"
     d="m 87.371094,28.359375 c -2.3125,-0.320312 -2.515625,-0.523437 -2.691406,-2.8125 -0.02734,-0.335937 -0.04297,-0.667969 -0.04297,-1.003906 -0.0078,-6.695313 -0.03125,-13.386719 -0.0039,-20.082031 0.0078,-2.476563 0.05469,-2.476563 2.347656,-3.21875 0.05469,-0.019532 0.195312,-0.089844 0.195312,-0.34375 h -9.84375 c 0,0.226562 0.140625,0.324218 0.195313,0.34375 2.292969,0.742187 2.339844,0.742187 2.351562,3.21875 0.02344,6.695312 0.0039,13.386718 -0.0078,20.082031 0,0.335937 -0.01953,0.667969 -0.04297,1.003906 -0.175781,2.289063 -0.375,2.492188 -2.6875,2.8125 -0.1875,0.02734 -0.371094,0.105469 -0.53125,0.46875 H 87.898454 C 87.738297,28.464844 87.55861,28.386719 87.37111,28.359375"
     id="path108" />
</svg>
